<svg role="img" viewBox="0 0 24 24" xmlns="http://www.w3.org/2000/svg">
  <title>Instagram</title>
  <path fill="#E4405F" d="M7.5 0h9A7.5 7.5 0 0 1 24 7.5v9a7.5 7.5 0 0 1-7.5 7.5h-9A7.5 7.5 0 0 1 0 16.5v-9A7.5 7.5 0 0 1 7.5 0zm0 2A5.5 5.5 0 0 0 2 7.5v9A5.5 5.5 0 0 0 7.5 22h9a5.5 5.5 0 0 0 5.5-5.5v-9A5.5 5.5 0 0 0 16.5 2z"/>
  <path fill="#E4405F" d="M12 5.8A6.2 6.2 0 1 1 12 18.2 6.2 6.2 0 0 1 12 5.8zm0 2A4.2 4.2 0 1 0 12 16.2 4.2 4.2 0 0 0 12 7.8z"/>
  <circle fill="#E4405F" cx="18.1" cy="5.9" r="1.4"/>
</svg>
