<svg fill="#FF4500" role="img" viewBox="0 0 24 24" xmlns="http://www.w3.org/2000/svg">
  <title>Reddit</title>
  <path d="M20.2 11.1c.1-.4.2-.7.2-1.1a2.7 2.7 0 0 0-4.6-1.9 11.1 11.1 0 0 0-3.1-.8l.7-3.3 2.3.5a2.1 2.1 0 1 0 .3-1.3l-3-.7a.7.7 0 0 0-.8.5l-.9 4.2a11.4 11.4 0 0 0-3.2.8A2.7 2.7 0 0 0 3.6 10c0 .4.1.8.2 1.1C2.7 12.1 2 13.5 2 15c0 4.1 4.5 7 10 7s10-2.9 10-7c0-1.5-.7-2.9-1.8-3.9zM8.3 14a1.6 1.6 0 1 1 0-3.2 1.6 1.6 0 0 1 0 3.2zm7.6 3.8c-1.1 1.1-2.7 1.6-3.9 1.6s-2.8-.5-3.9-1.6a.7.7 0 1 1 1-1c.7.7 1.9 1.2 2.9 1.2s2.2-.5 2.9-1.2a.7.7 0 1 1 1 1zm-.2-3.8a1.6 1.6 0 1 1 0-3.2 1.6 1.6 0 0 1 0 3.2z"/>
</svg>
